<svg width="693" height="555" viewBox="0 0 693 555" fill="none" xmlns="http://www.w3.org/2000/svg">
<path opacity="0.2" d="M412.304 285.955C388.985 372.967 228.85 358.738 138.761 334.603C48.6712 310.468 14.7873 243.333 38.1062 156.321C61.4252 69.3094 128.401 12.9667 218.49 37.1017C308.58 61.2366 435.623 198.943 412.304 285.955Z" fill="url(#paint0_linear_1_391)" fill-opacity="0.9"/>
<path opacity="0.2" d="M448.068 202.126C461.847 253.543 556.701 245.073 610.071 230.776C663.44 216.478 683.535 176.788 669.755 125.372C655.976 73.9556 616.327 40.6815 562.958 54.9792C509.588 69.2769 434.289 150.71 448.068 202.126Z" fill="url(#paint1_linear_1_391)" fill-opacity="0.9"/>
<path d="M230.269 166H306.718C320.671 166 332 177.328 332 191.281V412H205V191.281C205 177.328 216.329 166 230.282 166H230.269Z" fill="url(#paint2_linear_1_391)"/>
<path d="M347 541.13L279.773 521.34V499.301H275.979V418H264.021V499.301H260.227V520.737L193 541.117V544.338H193.89C193.397 545.256 193.11 546.325 193.11 547.449C193.11 551.067 196.041 554 199.657 554C203.273 554 206.204 551.067 206.204 547.449C206.204 545.133 205.013 543.118 203.205 541.939L203.328 541.816L264.925 534.401V543.282C263.994 544.42 263.432 545.873 263.432 547.449C263.432 551.067 266.363 554 269.979 554C273.596 554 276.527 551.067 276.527 547.449C276.527 545.873 275.965 544.42 275.034 543.282V534.401L336.535 541.802C334.604 542.94 333.303 545.037 333.303 547.449C333.303 551.067 336.234 554 339.85 554C343.466 554 346.397 551.067 346.397 547.449C346.397 546.325 346.11 545.27 345.617 544.338H346.973V541.117L347 541.13Z" fill="#182C62"/>
<path d="M328.028 412H210.972C205.464 412 201 416.467 201 421.977V432.023C201 437.533 205.464 442 210.972 442H328.028C333.536 442 338 437.533 338 432.023V421.977C338 416.467 333.536 412 328.028 412Z" fill="white" stroke="#263238" stroke-linecap="round" stroke-linejoin="round"/>
<path d="M318 363H223V416H318V363Z" fill="white" stroke="#263238" stroke-linecap="round" stroke-linejoin="round"/>
<path d="M261.579 211L247 216.706C247 216.706 252.289 249.423 259.263 266.309C266.237 283.194 292.024 310 292.024 310C292.024 310 305.343 290.583 309.988 275.176C314.632 259.768 309.782 216.487 309.782 216.487C309.782 216.487 305.548 213.737 298.999 212.683C292.449 211.629 261.579 211 261.579 211Z" fill="white" stroke="#263238" stroke-linecap="round" stroke-linejoin="round"/>
<path d="M264.094 210L259.444 211.285L255 219.174L266.001 250.508L283.984 231.746L303.668 252C303.668 252 306 220.459 306 216.839C306 213.219 302.831 211.934 300.499 211.299C298.168 210.663 264.108 210.014 264.108 210.014L264.094 210Z" fill="white"/>
<path d="M276.445 224.453L283.194 237.325L272 261.856L289.984 316L301 264.172L287.666 236.848L294.649 224.875L284.703 215L276.445 224.453Z" fill="#01D7EF"/>
<path d="M259.349 211C259.349 211 261.361 239.064 273.077 263.75C279.113 276.469 290.391 294.344 290.391 293.715C290.391 293.086 301.587 259.962 301.998 248.774C302.422 237.587 304.53 213.749 304.53 213.749C304.53 213.749 326.183 222.365 331.343 225.347C339.363 229.983 349.505 231.05 349.286 236.534C349.204 238.517 350.573 251.605 352.311 267.484C352.585 270 366.176 291.718 366.464 294.344C369.379 320.836 359.483 331.982 359.004 332.105C358.156 332.31 340.636 332.105 340.636 332.105C340.636 332.105 350.135 375.35 351.613 377.675L353.091 380H277.594L274.446 370.509L271.64 380H194.104L204.451 332.953H193.05C193.05 332.953 190.093 327.045 194.104 304.889C198.114 282.733 211.623 227.248 211.623 225.347C211.623 223.446 254.901 215.636 259.336 211H259.349Z" fill="#182C62"/>
<path d="M305.012 302.092C317.498 290.491 323 267.273 323 267.273L311.776 262.416L322.575 257.135L313.244 217.5C307.962 212.958 304.861 213.081 304.998 214.08C304.998 214.08 302.885 237.927 302.46 249.118C302.034 260.309 290.824 293.446 290.824 294.075C290.824 294.704 278.38 277.302 273.468 264.099C262.024 233.357 259.829 214.792 259.5 211.303C259.472 211.043 259.198 210.92 258.978 211.056C257.4 211.987 253.545 212.753 250.718 215.161C249.95 220.633 248.962 228.569 248.276 237.297C247 253.551 247 260.72 247 260.72L261.599 264.304L251.226 270.215C251.226 270.215 262.656 281.817 272.178 290.477C281.7 299.123 288.053 302.298 288.053 302.298L275.855 321C275.855 321 292.498 313.694 304.998 302.092H305.012Z" fill="#314885"/>
<path d="M230.522 265.048L225.235 293.324C225.235 293.324 271.096 284.254 272.781 285.512C274.466 286.785 276 320.341 276 320.341C276 320.341 216.783 330.683 209.811 332.995C202.839 335.32 195.647 335.745 193.113 333.624C190.579 331.517 190.36 326.237 192.264 315.895C194.168 305.553 212.345 230 212.345 230" fill="#182C62"/>
<path d="M336.893 263L338.804 295.398L323.526 294.766L322 321.618C322 321.618 364.12 331.392 366.444 332.669C368.782 333.946 368.355 331.392 371.106 327.37C373.87 323.348 376.194 314.658 375.987 310.855C375.781 307.039 367.076 294.341 366.87 294.972" fill="#182C62"/>
<path d="M176 363H161V555H176V363Z" fill="url(#paint3_linear_1_391)"/>
<path d="M521 363H506V555H521V363Z" fill="url(#paint4_linear_1_391)"/>
<path d="M543 331H135V516H543V331Z" fill="url(#paint5_linear_1_391)"/>
<path opacity="0.2" d="M541 331H135V350H541V331Z" fill="#263238"/>
<path d="M554 331H125V342H554V331Z" fill="url(#paint6_linear_1_391)"/>
<path d="M420.043 152.773C420.043 152.773 413.949 162.848 413.022 167.434C412.108 172.021 413.635 173.85 412.408 177.208C411.195 180.566 406 180.566 406 183.925C406 187.283 409.654 190.34 410.881 191.255C412.094 192.17 409.968 196.142 412.094 201.944C414.221 207.745 415.148 215.076 418.802 215.076C422.456 215.076 430.091 213.847 430.091 213.847L431.918 225L457.087 222.707C457.087 222.707 456.787 211.718 463.495 207.131C470.203 202.544 483.482 176.28 475.547 159.175C467.612 142.071 434.359 138.713 420.029 152.76L420.043 152.773Z" fill="#FFBEA7"/>
<path d="M412.031 140.403C412.027 140.4 412.022 140.401 412.021 140.405C411.217 142.95 410.876 145.755 411.04 148.723C411.327 154.078 413.171 159.42 415.931 163.98C419.046 169.144 426.519 172.431 428.349 177.936C428.964 179.771 430.494 184.675 434.77 185.907C439.046 187.126 438.131 187.126 436.915 195.412C435.699 203.698 439.36 211.956 446.697 214.107C454.033 216.257 461.069 214.408 466.875 209.82C472.681 205.232 483.692 186.222 483.993 169.061C484.539 138.698 454.675 123.838 427.748 127.563C419.678 128.686 414.201 133.599 412.04 140.401C412.039 140.405 412.034 140.406 412.031 140.403Z" fill="#C4C4C4"/>
<path d="M412.031 140.403C412.027 140.4 412.022 140.401 412.021 140.405C411.217 142.95 410.876 145.755 411.04 148.723C411.327 154.078 413.171 159.42 415.931 163.98C419.046 169.144 426.519 172.431 428.349 177.936C428.964 179.771 430.494 184.675 434.77 185.907C439.046 187.126 438.131 187.126 436.915 195.412C435.699 203.698 439.36 211.956 446.697 214.107C454.033 216.257 461.069 214.408 466.875 209.82C472.681 205.232 483.692 186.222 483.993 169.061C484.539 138.698 454.675 123.838 427.748 127.563C419.678 128.686 414.201 133.599 412.04 140.401C412.039 140.405 412.034 140.406 412.031 140.403Z" fill="url(#paint7_linear_1_391)"/>
<path d="M444.728 219.024C444.728 219.024 438.208 219.024 432.92 221.752C429.496 223.517 417.592 234.617 414.538 236.409C411.47 238.201 405.648 237.305 409.018 238.803C412.387 240.301 414.839 240.595 420.661 238.509C426.482 236.409 438.742 232.223 442.426 232.223C446.111 232.223 459.59 234.015 460.809 234.323C462.028 234.617 470 238.215 470 238.215C470 238.215 466.014 229.843 461.425 225.643C456.836 221.444 451.166 218.716 444.728 219.024Z" fill="#F2F2F2"/>
<path d="M434.278 179.122C432.95 179.597 432.191 181.022 432.34 182.419C432.624 185.133 433.031 190.697 432.15 194.469C430.944 199.626 437.369 199.626 438.779 191.172C439.714 185.595 437.586 177.941 434.278 179.122Z" fill="#FFBEA7"/>
<path d="M383.543 250C383.543 250 379.889 251.833 379.575 260.71C379.275 269.587 364.017 332.012 363.104 341.805C362.19 351.599 367.372 358.027 376.221 361.392C385.071 364.757 401.842 370.269 404.897 368.737C407.951 367.205 413.746 335.691 415.873 321.918C418.014 308.144 392.379 260.409 391.166 258.562C389.952 256.716 385.67 250.301 383.543 250Z" fill="#01D7EF"/>
<path d="M436 434.496L457.677 551.838C457.97 553.407 459.602 554.362 461.136 553.871C462.364 553.489 463.145 552.288 462.977 551.033L446.978 432L436 434.496Z" fill="#182C62"/>
<path d="M412.359 409.303C412.359 409.303 404.331 516.75 404.331 519.8C404.331 522.851 396 555 396 555H418.221C418.221 555 420.386 550.718 420.386 541.839C420.386 532.961 421.31 513.986 421.31 512.153C421.31 510.32 446 415.432 446 415.432C446 415.432 444.772 405.938 432.731 400.438C420.69 394.925 414.221 406.868 412.359 409.317V409.303Z" fill="#FFBEA7"/>
<path d="M420.1 541.877C420.1 533.788 420.864 517.309 421 513.121C410.839 507.419 404.538 515.018 404.538 515.018V515.045C404.333 517.814 404.238 519.56 404.238 519.901C404.238 522.957 396 555 396 555H417.972C417.972 555 420.113 550.73 420.113 541.877H420.1Z" fill="#182C62"/>
<path d="M367.46 394.554C367.46 394.554 357.938 404.942 357.019 413.802C356.1 422.662 388.947 516.432 388.947 516.432C388.947 516.432 388.329 521.319 383.733 527.121C379.136 532.923 372.688 541.168 371.755 546.669C370.836 552.171 371.755 554 371.755 554H393.557C393.557 554 401.226 534.452 404.3 529.564C407.373 524.677 405.521 515.203 404.602 510.93C403.682 506.658 395.395 408 395.395 408C395.395 408 388.947 387.237 367.46 394.567V394.554Z" fill="#FFBEA7"/>
<path d="M404.28 529.753C406.969 525.541 405.93 517.914 405.001 513.201C403.185 511.832 400.274 510.397 396.531 511.264C390.016 512.781 388.782 516.722 388.782 516.722C388.782 516.722 388.158 521.572 383.515 527.329C378.871 533.086 372.355 541.267 371.413 546.726C370.484 552.185 371.413 554 371.413 554H393.44C393.44 554 401.189 534.603 404.294 529.753H404.28Z" fill="#182C62"/>
<path d="M391.935 291.551C397.051 308.76 401.63 341.028 401.63 344.042C401.63 349.564 385.554 381.201 385.554 381.201C385.554 381.201 367.705 390.395 363.4 396.835C359.096 403.274 359.096 410.317 362.176 416.456C365.257 422.594 369.864 425.348 380.026 427.184C390.175 429.02 484.636 427.184 484.636 427.184C484.636 427.184 494.482 415.222 489.861 396.218C487.716 387.367 485.378 379.68 482.779 368.938C482.779 368.938 492.928 369.239 500.313 363.115C507.697 356.99 508 347.481 508 340.425C508 333.368 503.379 274.506 503.379 268.683C503.379 262.859 503.077 255.501 497.535 251.213C491.993 246.924 479.08 240.183 467.377 234.045C458.164 229.208 451.384 230.057 443.999 230.057C436.615 230.057 427.69 235.579 427.69 235.579C427.69 235.579 386.765 246.308 383.684 248.144C380.81 249.856 381.69 251.843 382.832 258.612" fill="#01D7EF"/>
<path d="M400.94 347C397.917 356.7 385.536 381.137 385.536 381.137C385.536 381.137 367.699 390.343 363.398 396.792C359.097 403.241 359.097 410.293 362.175 416.44C365.253 422.586 369.856 425.344 380.012 427.183C390.153 429.021 484.545 427.183 484.545 427.183C484.545 427.183 494.384 415.205 489.767 396.174C487.623 387.311 485.287 379.614 482.69 368.857L475.022 347H400.927H400.94Z" fill="url(#paint8_linear_1_391)"/>
<path d="M374.931 433L359.023 552.006C358.816 553.585 360.04 555 361.649 555C362.928 555 364.028 554.094 364.248 552.83L386 433.92L374.931 433Z" fill="#182C62"/>
<path d="M480.069 433L495.977 552.006C496.184 553.585 494.96 555 493.351 555C492.072 555 490.972 554.094 490.752 552.83L469 433.92L480.069 433Z" fill="#182C62"/>
<path d="M417.931 433L402.023 552.006C401.816 553.585 403.04 555 404.649 555C405.928 555 407.028 554.094 407.248 552.83L429 433.92L417.931 433Z" fill="#182C62"/>
<path d="M497.404 298H397.946C397.946 298 395.18 321.299 396.721 341.241C398.263 361.168 401.648 386.619 401.029 402.874C400.41 419.129 391.175 428.023 391.175 428.023H369.005C366.789 428.023 365 429.805 365 432.012C365 434.218 366.789 436 369.005 436H488.789C488.789 436 499.868 420.362 498.945 397.049C498.023 373.75 488.789 347.367 491.858 328.659C494.941 309.951 497.404 298 497.404 298Z" fill="#182C62"/>
<path d="M456.477 128.766C456.477 128.766 456.477 128.766 456.477 128.766C456.477 128.766 453.768 134.511 456.382 137.032C459.004 139.542 467.454 148.769 468.257 158.951C469.061 169.132 482.478 170.447 495.307 157.388C508.136 144.329 504.31 122.173 486.4 116.427C468.49 110.681 459.186 123.022 456.477 128.766Z" fill="#C4C4C4"/>
<path d="M456.477 128.766C456.477 128.766 456.477 128.766 456.477 128.766C456.477 128.766 453.768 134.511 456.382 137.032C459.004 139.542 467.454 148.769 468.257 158.951C469.061 169.132 482.478 170.447 495.307 157.388C508.136 144.329 504.31 122.173 486.4 116.427C468.49 110.681 459.186 123.022 456.477 128.766Z" fill="url(#paint9_linear_1_391)"/>
<path d="M328 184.564C328 207.588 234 205.341 234 184.564C234 123.676 328 123.948 328 184.564Z" fill="#F2F2F2"/>
<path opacity="0.2" fill-rule="evenodd" clip-rule="evenodd" d="M266.893 148.254C262.994 146.589 260.929 144.401 260.929 142C260.033 142.371 259.466 142.643 259 142.882C259.454 146.21 262.459 148.603 266.141 150.175C270.235 151.923 275.63 152.876 280.977 152.989C286.322 153.101 291.731 152.376 295.844 150.677C299.602 149.125 302.568 146.617 303 142.938C302.101 142.509 301.825 142.383 301.091 142.055C301.091 144.936 298.941 147.165 295.112 148.747C291.327 150.31 286.204 151.022 281.017 150.913C275.834 150.804 270.697 149.878 266.893 148.254Z" fill="#888C97"/>
<path d="M321 180.54C321 197.994 249 196.291 249 180.54C249 134.384 321 134.59 321 180.54Z" fill="#182C62"/>
<circle cx="276" cy="172" r="5" fill="#01D7EF"/>
<circle cx="305" cy="172" r="5" fill="#01D7EF"/>
<path d="M285 181C285 182.061 285.527 183.078 286.464 183.828C287.402 184.579 288.674 185 290 185C291.326 185 292.598 184.579 293.536 183.828C294.473 183.078 295 182.061 295 181" stroke="#01D7EF" stroke-width="4" stroke-linecap="round"/>
<g filter="url(#filter0_d_1_391)">
<rect x="534" y="119" width="138" height="47" rx="16" fill="white"/>
</g>
<path d="M646.416 137H558.584C557.154 137 556 135.883 556 134.5C556 133.117 557.154 132 558.584 132H646.416C647.846 132 649 133.117 649 134.5C649 135.883 647.846 137 646.416 137Z" fill="#182C62"/>
<path d="M594.401 149H558.599C557.161 149 556 147.883 556 146.5C556 145.117 557.161 144 558.599 144H594.401C595.839 144 597 145.117 597 146.5C597 147.883 595.839 149 594.401 149Z" fill="#182C62"/>
<path d="M503 170L539 139V151.469L503 170Z" fill="white"/>
<g filter="url(#filter1_d_1_391)">
<rect x="18" y="57" width="158" height="73" rx="16" fill="white"/>
</g>
<path d="M151.414 79H38.5862C37.1553 79 36 77.8832 36 76.5C36 75.1168 37.1553 74 38.5862 74H151.414C152.845 74 154 75.1168 154 76.5C154 77.8832 152.845 79 151.414 79Z" fill="#01D7EF"/>
<path d="M126.416 109H38.5843C37.1544 109 36 107.883 36 106.5C36 105.117 37.1544 104 38.5843 104H126.416C127.846 104 129 105.117 129 106.5C129 107.883 127.846 109 126.416 109Z" fill="#01D7EF"/>
<path d="M104.404 94H38.5965C37.1598 94 36 92.8832 36 91.5C36 90.1168 37.1598 89 38.5965 89H104.404C105.84 89 107 90.1168 107 91.5C107 92.8832 105.84 94 104.404 94Z" fill="#01D7EF"/>
<path d="M203 160L163.773 127L144 129.275L203 160Z" fill="white"/>
<defs>
<filter id="filter0_d_1_391" x="520.612" y="105.612" width="164.776" height="73.7755" filterUnits="userSpaceOnUse" color-interpolation-filters="sRGB">
<feFlood flood-opacity="0" result="BackgroundImageFix"/>
<feColorMatrix in="SourceAlpha" type="matrix" values="0 0 0 0 0 0 0 0 0 0 0 0 0 0 0 0 0 0 127 0" result="hardAlpha"/>
<feOffset/>
<feGaussianBlur stdDeviation="6.69388"/>
<feComposite in2="hardAlpha" operator="out"/>
<feColorMatrix type="matrix" values="0 0 0 0 0.6 0 0 0 0 0.631373 0 0 0 0 0.658824 0 0 0 0.1 0"/>
<feBlend mode="multiply" in2="BackgroundImageFix" result="effect1_dropShadow_1_391"/>
<feBlend mode="normal" in="SourceGraphic" in2="effect1_dropShadow_1_391" result="shape"/>
</filter>
<filter id="filter1_d_1_391" x="4.61224" y="43.6122" width="184.776" height="99.7755" filterUnits="userSpaceOnUse" color-interpolation-filters="sRGB">
<feFlood flood-opacity="0" result="BackgroundImageFix"/>
<feColorMatrix in="SourceAlpha" type="matrix" values="0 0 0 0 0 0 0 0 0 0 0 0 0 0 0 0 0 0 127 0" result="hardAlpha"/>
<feOffset/>
<feGaussianBlur stdDeviation="6.69388"/>
<feComposite in2="hardAlpha" operator="out"/>
<feColorMatrix type="matrix" values="0 0 0 0 0.6 0 0 0 0 0.631373 0 0 0 0 0.658824 0 0 0 0.1 0"/>
<feBlend mode="multiply" in2="BackgroundImageFix" result="effect1_dropShadow_1_391"/>
<feBlend mode="normal" in="SourceGraphic" in2="effect1_dropShadow_1_391" result="shape"/>
</filter>
<linearGradient id="paint0_linear_1_391" x1="108.387" y1="-19.2943" x2="446.538" y2="222.582" gradientUnits="userSpaceOnUse">
<stop stop-color="#ABEBFF"/>
<stop offset="0.0523189" stop-color="#73D9F8"/>
<stop offset="0.143548" stop-color="#3CAAE1"/>
<stop offset="0.3518" stop-color="#1A8DD3"/>
<stop offset="0.66568" stop-color="#0077C8"/>
<stop offset="0.84375" stop-color="#0584CC"/>
<stop offset="1" stop-color="#0077C8"/>
</linearGradient>
<linearGradient id="paint1_linear_1_391" x1="628.193" y1="21.6075" x2="428.053" y2="165.018" gradientUnits="userSpaceOnUse">
<stop stop-color="#ABEBFF"/>
<stop offset="0.0523189" stop-color="#73D9F8"/>
<stop offset="0.143548" stop-color="#3CAAE1"/>
<stop offset="0.3518" stop-color="#1A8DD3"/>
<stop offset="0.66568" stop-color="#0077C8"/>
<stop offset="0.84375" stop-color="#0584CC"/>
<stop offset="1" stop-color="#0077C8"/>
</linearGradient>
<linearGradient id="paint2_linear_1_391" x1="268.5" y1="166" x2="268.5" y2="412" gradientUnits="userSpaceOnUse">
<stop stop-color="#2DAAFF"/>
<stop offset="1" stop-color="#0077C8"/>
</linearGradient>
<linearGradient id="paint3_linear_1_391" x1="168.5" y1="363" x2="168.5" y2="555" gradientUnits="userSpaceOnUse">
<stop stop-color="#2DAAFF"/>
<stop offset="1" stop-color="#0077C8"/>
</linearGradient>
<linearGradient id="paint4_linear_1_391" x1="513.5" y1="363" x2="513.5" y2="555" gradientUnits="userSpaceOnUse">
<stop stop-color="#2DAAFF"/>
<stop offset="1" stop-color="#0077C8"/>
</linearGradient>
<linearGradient id="paint5_linear_1_391" x1="339" y1="331" x2="339" y2="516" gradientUnits="userSpaceOnUse">
<stop stop-color="#2DAAFF"/>
<stop offset="1" stop-color="#0077C8"/>
</linearGradient>
<linearGradient id="paint6_linear_1_391" x1="339.5" y1="331" x2="339.5" y2="342" gradientUnits="userSpaceOnUse">
<stop stop-color="#2DAAFF"/>
<stop offset="1" stop-color="#0077C8"/>
</linearGradient>
<linearGradient id="paint7_linear_1_391" x1="447.5" y1="127" x2="447.5" y2="215" gradientUnits="userSpaceOnUse">
<stop stop-color="#FFA51F"/>
<stop offset="1" stop-color="#CE6328"/>
</linearGradient>
<linearGradient id="paint8_linear_1_391" x1="425.5" y1="347" x2="425.5" y2="428" gradientUnits="userSpaceOnUse">
<stop stop-color="#2DAAFF"/>
<stop offset="1" stop-color="#0077C8"/>
</linearGradient>
<linearGradient id="paint9_linear_1_391" x1="459.461" y1="123.995" x2="497.472" y2="154.916" gradientUnits="userSpaceOnUse">
<stop stop-color="#FFA51F"/>
<stop offset="1" stop-color="#CE6328"/>
</linearGradient>
</defs>
</svg>
